# xmcd CD database file
#
# Track frame offsets:
#	150
#	13010
#	28805
#	40687
#	57047
#	73025
#	91630
#	112160
#	128590
#	141897
#
# Disc length: 2125 seconds
#
# Revision: 2
# Processed by: cddbd v1.5.2PL0 Copyright (c) Steve Scherf et al.
# Submitted via: CDex 1.51
#
DISCID=80084b0a
DTITLE=Michael Johnson - Wings
DYEAR=1986
DGENRE=Country
TTITLE0=Gotta Learn To Love Without You
TTITLE1=It's Only Over For You
TTITLE2=That's What Your Love Does To Me
TTITLE3=Give Me Wings
TTITLE4=Hangin' On
TTITLE5=Ponies
TTITLE6=Magic Time
TTITLE7=True Love
TTITLE8=Cool Me In The River Of Love
TTITLE9=The Moon Is Still Over Her Shoulder
EXTD=YEAR: 1986
EXTT0=
EXTT1=
EXTT2=
EXTT3=
EXTT4=
EXTT5=
EXTT6=
EXTT7=
EXTT8=
EXTT9=
PLAYORDER=
